<?xml version="1.0" encoding="UTF-8" standalone="no"?>
<!-- Created with Inkscape (http://www.inkscape.org/) -->

<svg
   xmlns:dc="http://purl.org/dc/elements/1.1/"
   xmlns:cc="http://creativecommons.org/ns#"
   xmlns:rdf="http://www.w3.org/1999/02/22-rdf-syntax-ns#"
   xmlns:svg="http://www.w3.org/2000/svg"
   xmlns="http://www.w3.org/2000/svg"
   xmlns:sodipodi="http://sodipodi.sourceforge.net/DTD/sodipodi-0.dtd"
   xmlns:inkscape="http://www.inkscape.org/namespaces/inkscape"
   width="163.87947mm"
   height="122.9096mm"
   viewBox="0 0 580.67529 435.50645"
   id="svg4299"
   version="1.1"
   inkscape:version="0.91 r13725"
   sodipodi:docname="folder-icon-02.svg">
  <defs
     id="defs4301" />
  <sodipodi:namedview
     id="base"
     pagecolor="#ffffff"
     bordercolor="#666666"
     borderopacity="1.0"
     inkscape:pageopacity="0.0"
     inkscape:pageshadow="2"
     inkscape:zoom="0.98994949"
     inkscape:cx="308.02641"
     inkscape:cy="219.14569"
     inkscape:document-units="px"
     inkscape:current-layer="layer1"
     showgrid="false"
     inkscape:window-width="1920"
     inkscape:window-height="1054"
     inkscape:window-x="1920"
     inkscape:window-y="0"
     inkscape:window-maximized="1"
     fit-margin-top="0"
     fit-margin-left="0"
     fit-margin-right="0"
     fit-margin-bottom="0" />
  <metadata
     id="metadata4304">
    <rdf:RDF>
      <cc:Work
         rdf:about="">
        <dc:format>image/svg+xml</dc:format>
        <dc:type
           rdf:resource="http://purl.org/dc/dcmitype/StillImage" />
        <dc:title></dc:title>
      </cc:Work>
    </rdf:RDF>
  </metadata>
  <g
     inkscape:label="Ebene 1"
     inkscape:groupmode="layer"
     id="layer1"
     transform="translate(-54.62348,-154.18059)">
    <g
       id="g4369"
       transform="matrix(36.292205,0,0,36.292205,54.62348,81.59618)">
      <path
         id="path4359"
         d="M 16,4 16,14 0,14 0,2 7,2 8.3,4 16,4 Z"
         inkscape:connector-curvature="0"
         style="fill:#f59936;fill-opacity:1" />
      <path
         id="path4361"
         d="M 16,5 8.3,5 7,7 0,7 0,4 16,4 16,5 Z"
         inkscape:connector-curvature="0"
         style="opacity:1;fill:#de7427;fill-opacity:1" />
    </g>
    <g
       id="g4537"
       transform="matrix(0.45675234,0,0,0.45675234,322.75399,267.39237)">
      <g
         id="g4494">
        <g
           id="Bell">
          <g
             id="g4497">
            <path
               id="path4499"
               d="M 618.666,487.262 C 576.547,450.848 546.428,354.086 546.428,240.429 546.428,154.399 491.13,81.462 414.193,54.753 409.013,23.715 382.216,0 349.714,0 317.213,0 290.416,23.715 285.235,54.752 208.298,81.461 153,154.399 153,240.429 c 0,113.636 -30.097,210.374 -72.238,246.833 -23.518,20.35 -37.048,49.9 -37.048,81.023 0,36.219 29.354,65.572 65.571,65.572 l 174.857,0 c 0,36.217 29.354,65.57 65.571,65.57 36.217,0 65.571,-29.354 65.571,-65.57 l 174.857,0 c 36.217,0 65.571,-29.354 65.571,-65.572 0.002,-31.101 -13.506,-60.674 -37.046,-81.023 z m -509.381,81.023 c 0,-12.064 5.246,-23.539 14.36,-31.43 58.555,-50.621 94.925,-164.213 94.925,-296.427 0,-72.325 58.818,-131.143 131.143,-131.143 72.325,0 131.143,58.818 131.143,131.143 0,132.214 36.37,245.806 94.926,296.427 9.137,7.912 14.36,19.365 14.36,31.43 l -480.857,0 z"
               inkscape:connector-curvature="0" />
          </g>
        </g>
      </g>
      <g
         id="g4501" />
      <g
         id="g4503" />
      <g
         id="g4505" />
      <g
         id="g4507" />
      <g
         id="g4509" />
      <g
         id="g4511" />
      <g
         id="g4513" />
      <g
         id="g4515" />
      <g
         id="g4517" />
      <g
         id="g4519" />
      <g
         id="g4521" />
      <g
         id="g4523" />
      <g
         id="g4525" />
      <g
         id="g4527" />
      <g
         id="g4529" />
    </g>
  </g>
</svg>
