<?xml version="1.0" encoding="UTF-8" standalone="no"?>
<!-- Created with Inkscape (http://www.inkscape.org/) -->

<svg
   width="16"
   height="16"
   viewBox="0 -68 580.998 580.998"
   id="svg4299"
   version="1.1"
   inkscape:version="1.3.2 (091e20e, 2023-11-25, custom)"
   sodipodi:docname="ext-pb_notifications-folder-tree.svg"
   xmlns:inkscape="http://www.inkscape.org/namespaces/inkscape"
   xmlns:sodipodi="http://sodipodi.sourceforge.net/DTD/sodipodi-0.dtd"
   xmlns="http://www.w3.org/2000/svg"
   xmlns:svg="http://www.w3.org/2000/svg"
   xmlns:rdf="http://www.w3.org/1999/02/22-rdf-syntax-ns#"
   xmlns:cc="http://creativecommons.org/ns#"
   xmlns:dc="http://purl.org/dc/elements/1.1/">
  <defs
     id="defs4301" />
  <sodipodi:namedview
     id="base"
     pagecolor="#ffffff"
     bordercolor="#666666"
     borderopacity="1.0"
     inkscape:pageopacity="0.0"
     inkscape:pageshadow="2"
     inkscape:zoom="48.19"
     inkscape:cx="8.1863457"
     inkscape:cy="8.1240921"
     inkscape:document-units="px"
     inkscape:current-layer="layer1"
     showgrid="false"
     inkscape:window-width="1920"
     inkscape:window-height="1009"
     inkscape:window-x="-8"
     inkscape:window-y="66"
     inkscape:window-maximized="1"
     fit-margin-top="0"
     fit-margin-left="0"
     fit-margin-right="0"
     fit-margin-bottom="0"
     inkscape:showpageshadow="2"
     inkscape:pagecheckerboard="0"
     inkscape:deskcolor="#d1d1d1" />
  <metadata
     id="metadata4304">
    <rdf:RDF>
      <cc:Work
         rdf:about="">
        <dc:format>image/svg+xml</dc:format>
        <dc:type
           rdf:resource="http://purl.org/dc/dcmitype/StillImage" />
      </cc:Work>
    </rdf:RDF>
  </metadata>
  <g
     inkscape:label="Ebene 1"
     inkscape:groupmode="layer"
     id="layer1"
     transform="translate(-54.62348,-154.18059)">
    <g
       id="g4369"
       transform="matrix(36.292205,0,0,36.292205,54.62348,81.59618)">
      <path
         id="path4359"
         d="M 16,4 V 14 H 0 V 2 h 7 l 1.3,2 z"
         inkscape:connector-curvature="0"
         style="fill:#f59936;fill-opacity:1" />
      <path
         id="path4361"
         d="M 16,5 H 8.3 L 7,7 H 0 V 4 h 16 z"
         inkscape:connector-curvature="0"
         style="opacity:1;fill:#de7427;fill-opacity:1" />
    </g>
    <g
       id="g4537"
       transform="matrix(0.40996468,0,0,0.40996468,342.13035,281.70935)">
      <g
         id="g4494">
        <g
           id="Bell">
          <g
             id="g4497">
            <path
               id="path4499"
               d="M 618.666,487.262 C 576.547,450.848 546.428,354.086 546.428,240.429 546.428,154.399 491.13,81.462 414.193,54.753 409.013,23.715 382.216,0 349.714,0 317.213,0 290.416,23.715 285.235,54.752 208.298,81.461 153,154.399 153,240.429 c 0,113.636 -30.097,210.374 -72.238,246.833 -23.518,20.35 -37.048,49.9 -37.048,81.023 0,36.219 29.354,65.572 65.571,65.572 h 174.857 c 0,36.217 29.354,65.57 65.571,65.57 36.217,0 65.571,-29.354 65.571,-65.57 h 174.857 c 36.217,0 65.571,-29.354 65.571,-65.572 0.002,-31.101 -13.506,-60.674 -37.046,-81.023 z m -509.381,81.023 c 0,-12.064 5.246,-23.539 14.36,-31.43 58.555,-50.621 94.925,-164.213 94.925,-296.427 0,-72.325 58.818,-131.143 131.143,-131.143 72.325,0 131.143,58.818 131.143,131.143 0,132.214 36.37,245.806 94.926,296.427 9.137,7.912 14.36,19.365 14.36,31.43 z"
               inkscape:connector-curvature="0" />
          </g>
        </g>
      </g>
      <g
         id="g4501" />
      <g
         id="g4503" />
      <g
         id="g4505" />
      <g
         id="g4507" />
      <g
         id="g4509" />
      <g
         id="g4511" />
      <g
         id="g4513" />
      <g
         id="g4515" />
      <g
         id="g4517" />
      <g
         id="g4519" />
      <g
         id="g4521" />
      <g
         id="g4523" />
      <g
         id="g4525" />
      <g
         id="g4527" />
      <g
         id="g4529" />
    </g>
  </g>
</svg>
