<?xml version="1.0" encoding="UTF-8" standalone="no"?>
<!-- Created with Inkscape (http://www.inkscape.org/) -->

<svg
   xmlns:dc="http://purl.org/dc/elements/1.1/"
   xmlns:cc="http://creativecommons.org/ns#"
   xmlns:rdf="http://www.w3.org/1999/02/22-rdf-syntax-ns#"
   xmlns:svg="http://www.w3.org/2000/svg"
   xmlns="http://www.w3.org/2000/svg"
   xmlns:sodipodi="http://sodipodi.sourceforge.net/DTD/sodipodi-0.dtd"
   xmlns:inkscape="http://www.inkscape.org/namespaces/inkscape"
   width="73.563316mm"
   height="78.837387mm"
   viewBox="0 0 260.65742 279.34507"
   id="svg2"
   version="1.1"
   inkscape:version="0.91 r13725"
   sodipodi:docname="ext-icon.svg">
  <defs
     id="defs4" />
  <sodipodi:namedview
     id="base"
     pagecolor="#ffffff"
     bordercolor="#666666"
     borderopacity="1.0"
     inkscape:pageopacity="0.0"
     inkscape:pageshadow="2"
     inkscape:zoom="0.35"
     inkscape:cx="-532.88559"
     inkscape:cy="109.5161"
     inkscape:document-units="px"
     inkscape:current-layer="layer1"
     showgrid="false"
     fit-margin-top="0"
     fit-margin-left="0"
     fit-margin-right="0"
     fit-margin-bottom="0"
     inkscape:window-width="1490"
     inkscape:window-height="872"
     inkscape:window-x="2187"
     inkscape:window-y="162"
     inkscape:window-maximized="0" />
  <metadata
     id="metadata7">
    <rdf:RDF>
      <cc:Work
         rdf:about="">
        <dc:format>image/svg+xml</dc:format>
        <dc:type
           rdf:resource="http://purl.org/dc/dcmitype/StillImage" />
        <dc:title></dc:title>
      </cc:Work>
    </rdf:RDF>
  </metadata>
  <g
     inkscape:label="Ebene 1"
     inkscape:groupmode="layer"
     id="layer1"
     transform="translate(-246.45702,-368.24752)">
    <path
       style="fill:#000000"
       d="m 369.43622,647.13287 c -11.01326,-1.92496 -23.01575,-10.85203 -28.11184,-20.90868 -1.3375,-2.63942 -2.95205,-7.78635 -3.58789,-11.43761 l -1.15607,-6.63866 -35.64735,-0.006 c -23.02594,-0.004 -37.06242,-0.39842 -39.64404,-1.11512 -5.27063,-1.4632 -11.90344,-8.14511 -13.55406,-13.65438 l -1.27795,-4.26543 9.00185,-9.22975 c 10.79559,-11.06888 17.85013,-21.32082 24.893,-36.17548 10.38625,-21.90643 14.72502,-42.58716 16.3756,-78.05426 0.67494,-14.50283 1.37056,-20.54212 2.93893,-25.51528 5.03312,-15.95961 19.35026,-32.96504 35.11933,-41.71358 4.93717,-2.73909 18.413,-7.4285 25.01667,-8.70547 2.3402,-0.45253 2.518,-0.8926 2.53579,-6.27616 0.0229,-6.93786 2.06551,-10.5438 7.56046,-13.34712 4.88784,-2.49359 8.95511,-2.45849 14.01115,0.1209 5.13885,2.62165 8.40837,9.20553 7.4738,15.05006 -0.57491,3.59526 -0.43603,3.87959 2.1437,4.3888 9.21992,1.8199 22.50032,6.95814 29.25843,11.3202 8.95321,5.77891 20.06065,17.30093 25.27648,26.21992 6.35506,10.86709 7.75238,17.02118 8.75343,38.55217 1.71699,36.92968 6.55531,58.68399 18.21246,81.88782 6.17232,12.28614 13.22537,22.13878 23.08449,32.24748 l 9.00185,9.22975 -1.27795,4.26543 c -1.65062,5.50927 -8.28344,12.19118 -13.55406,13.65438 -2.58158,0.71669 -16.61697,1.11152 -39.63985,1.11512 l -35.64315,0.006 -1.05478,5.98807 c -2.6009,14.76558 -12.39622,26.72669 -25.68157,31.3599 -5.49108,1.91499 -14.97256,2.66023 -20.82686,1.63698 z m 10.34951,-13.89769 c 0,-1.58382 -2.49864,-2.81698 -6.82151,-3.36664 -8.73721,-1.11095 -16.94089,-9.43306 -17.92751,-18.18631 -0.59676,-5.2944 -2.61439,-7.619 -4.72895,-5.44841 -1.08906,1.11793 -1.17091,2.56603 -0.39076,6.9141 1.90968,10.64347 11.4063,20.31911 21.48225,21.88723 4.71709,0.73412 8.38648,-0.0534 8.38648,-1.79997 z m 97.40394,-46.33726 c -0.39276,-0.6875 -2.15637,-3.05 -3.91914,-5.25 -20.82483,-25.9901 -32.6443,-61.10088 -35.44116,-105.28106 -1.72032,-27.17483 -1.8743,-28.26336 -4.9065,-34.6861 -10.14861,-21.4966 -30.26111,-33.49811 -56.13714,-33.49811 -26.09859,0 -45.95751,11.92913 -56.28239,33.8085 -2.85546,6.05096 -3.05583,7.3639 -4.34885,28.49501 -1.85557,30.3247 -5.80801,51.37544 -13.29529,70.81091 -5.73083,14.87606 -14.83472,30.95833 -23.20349,40.98963 -2.12849,2.55133 -3.86998,4.91383 -3.86998,5.25 0,0.33617 45.47656,0.61122 101.05902,0.61122 80.5614,0 100.91417,-0.25354 100.34492,-1.25 z"
       id="path4201"
       inkscape:connector-curvature="0" />
  </g>
</svg>
